<svg id="Layer_35" enable-background="new 0 0 64 64" height="512" viewBox="0 0 64 64" width="512" xmlns="http://www.w3.org/2000/svg"><path d="m48 18v8c0-1.1-.45-2.1-1.17-2.83-.73-.72-1.73-1.17-2.83-1.17v-4l-5-3-3 3-4-3-4 3-3-3-5 3v4c-2.21 0-4 1.79-4 4v-8c0-8.84 7.16-16 16-16 4.42 0 8.42 1.79 11.32 4.68 2.89 2.9 4.68 6.9 4.68 11.32z" fill="#656d78"/><path d="m16 62h-10c0-6.05 3.66-11.5 9.26-13.79l7.73-3.16-.99 5.95 4 3-2 3 5 5z" fill="#b27946"/><path d="m48 62h-13l5-5-2-3 4-3-.99-5.95 7.73 3.16c2.8 1.15 5.12 3.08 6.73 5.49 1.61 2.4 2.53 5.28 2.53 8.3z" fill="#b27946"/><path d="m38.93 44.2 2.08.85.99 5.95-4 3 2 3-5 5h-2z" fill="#cf9e76"/><path d="m25.07 44.2 5.93 17.8h-2l-5-5 2-3-4-3 .99-5.95z" fill="#cf9e76"/><path d="m38.93 44.2-5.93 17.8h-2l-5.93-17.8.44-.18c.36-.15.7-.35 1-.59.95 2.1 3.04 3.57 5.49 3.57s4.54-1.47 5.49-3.57c.3.24.64.44 1 .59z" fill="#aab2bd"/><g fill="#f0d0b4"><path d="m37.49 43.43c-.95 2.1-3.04 3.57-5.49 3.57s-4.54-1.47-5.49-3.57c.93-.75 1.49-1.89 1.49-3.12v-1.24c1.23.8 2.57 1.45 4 1.93 1.43-.48 2.77-1.13 4-1.93v1.24c0 1.23.56 2.37 1.49 3.12z"/><path d="m46.83 23.17c.72.73 1.17 1.73 1.17 2.83 0 2.21-1.79 4-4 4h-.94c.5-1.46.81-3.01.9-4.6.01-.02.01-.04.01-.06.02-.11.03-.22.03-.34v-.65-1.35-1c1.1 0 2.1.45 2.83 1.17z"/><path d="m20 23v1.35.65c0 .12.01.23.03.34 0 .02 0 .04.01.06.09 1.59.4 3.14.9 4.6h-.94c-1.1 0-2.1-.45-2.83-1.17-.72-.73-1.17-1.73-1.17-2.83 0-2.21 1.79-4 4-4z"/><path d="m39 15-3 3-4-3-4 3-3-3-5 3v4 1c0-1.1.9-2 2-2h6c1.1 0 2 .9 2 2v2c0 1.1-.9 2-2 2h-6c-.96 0-1.77-.69-1.96-1.6.09 1.59.4 3.14.9 4.6.56 1.65 1.36 3.21 2.37 4.61 1.27 1.75 2.85 3.27 4.69 4.46 1.23.8 2.57 1.45 4 1.93 1.43-.48 2.77-1.13 4-1.93 3.32-2.15 5.8-5.35 7.06-9.07.5-1.46.81-3.01.9-4.6-.19.91-1 1.6-1.96 1.6h-6c-1.1 0-2-.9-2-2v-2c0-1.1.9-2 2-2h6c1.1 0 2 .9 2 2v-1-4z"/></g><path d="m44 23v1.35c0 .33-.01.66-.03.99 0 .02 0 .04-.01.06-.19.91-1 1.6-1.96 1.6h-6c-1.1 0-2-.9-2-2v-2c0-1.1.9-2 2-2h6c1.1 0 2 .9 2 2z" fill="#69d6f4"/><path d="m30 23v2c0 1.1-.9 2-2 2h-6c-.96 0-1.77-.69-1.96-1.6-.01-.02-.01-.04-.01-.06-.02-.33-.03-.66-.03-.99v-1.35c0-1.1.9-2 2-2h6c1.1 0 2 .9 2 2z" fill="#69d6f4"/><path d="m36 32h-2c0 1.103-.897 2-2 2s-2-.897-2-2h-2c0 2.206 1.794 4 4 4s4-1.794 4-4z"/><path d="m32 7v-2c-3.693 0-7.225 1.58-9.689 4.333l1.49 1.334c2.086-2.331 5.074-3.667 8.199-3.667z"/><path d="m22.471 12.5-1.73-1.002c-.398.688-.735 1.418-1 2.168l1.885.667c.224-.634.508-1.25.845-1.833z"/><path d="m49.123 47.288-10.259-4.197c-1.133-.463-1.864-1.553-1.864-2.777v-.718c3.077-2.126 5.427-5.126 6.759-8.596h.241c2.757 0 5-2.243 5-5v-8c0-9.374-7.626-17-17-17s-17 7.626-17 17v8c0 2.757 2.243 5 5 5h.241c1.332 3.471 3.682 6.47 6.759 8.596v.718c0 1.224-.731 2.313-1.864 2.776l-10.259 4.197c-6 2.455-9.877 8.231-9.877 14.713v1h54v-1c0-6.482-3.877-12.258-9.877-14.712zm-8.209 3.276-4.065 3.049 2.694-8.083.569.233zm-17.027-4.801.569-.233 2.694 8.083-4.065-3.049zm3.366 8.159 2.36 7.078h-.199l-4.127-4.127zm-.777-8.654c1.307 1.691 3.329 2.732 5.524 2.732s4.217-1.041 5.524-2.732l-5.244 15.732h-.56zm10.271 8.654 1.966 2.951-4.127 4.127h-.199zm5.253-27.922h-6c-.552 0-1-.449-1-1v-2c0-.551.448-1 1-1h6c.552 0 1 .449 1 1v1.351c0 .27-.018.537-.031.804-.078.475-.472.845-.969.845zm-8.816-4h-2.369c-.414-1.161-1.514-2-2.816-2h-6c-.352 0-.686.072-1 .184v-1.618l3.845-2.307 3.062 3.061 4.094-3.07 4.094 3.07 3.062-3.061 3.844 2.307v1.618c-.314-.112-.648-.184-1-.184h-6c-1.302 0-2.402.839-2.816 2zm-12.153 3.155c-.013-.267-.031-.534-.031-.804v-1.351c0-.551.448-1 1-1h6c.552 0 1 .449 1 1v2c0 .551-.448 1-1 1h-6c-.497 0-.891-.37-.969-.845zm23.383 3.803c.293-1.145.474-2.329.543-3.538.02-.138.043-.276.043-.42v-.649-1.167c1.161.414 2 1.514 2 2.816 0 1.512-1.129 2.754-2.586 2.958zm-12.414-25.958c8.271 0 15 6.729 15 15v4.026c-.584-.442-1.257-.773-2-.924v-3.667l-6.155-3.693-2.938 2.939-3.907-2.931-3.906 2.93-2.938-2.939-6.156 3.693v3.667c-.743.152-1.416.482-2 .924v-4.025c0-8.271 6.729-15 15-15zm-15 23c0-1.302.839-2.402 2-2.816v1.167.649c0 .144.023.282.042.42.069 1.209.25 2.393.543 3.538-1.456-.204-2.585-1.446-2.585-2.958zm4.399 1.939c.194.04.395.061.601.061h6c1.654 0 3-1.346 3-3v-1h2v1c0 1.654 1.346 3 3 3h6c.206 0 .407-.021.601-.061-1.215 5.488-5.159 10.068-10.601 12.003-5.442-1.935-9.386-6.515-10.601-12.003zm10.285 14.009.316.106.316-.105c.947-.316 1.855-.702 2.719-1.152.102 1.065.529 2.048 1.215 2.825-.902 1.462-2.504 2.378-4.25 2.378s-3.348-.916-4.251-2.379c.686-.777 1.113-1.76 1.215-2.825.864.45 1.773.837 2.72 1.152zm-16.049 7.192 6.076-2.486-.797 4.782 3.729 2.797-1.931 2.895 3.874 3.872h-9.586v-6h-2v6h-7.965c.373-5.255 3.665-9.842 8.6-11.86zm33.365 11.86v-6h-2v6h-9.586l3.873-3.873-1.931-2.895 3.729-2.797-.797-4.782 6.076 2.486c4.935 2.019 8.227 6.605 8.6 11.86h-7.964z"/></svg>